<svg width="44" height="44" viewBox="0 0 44 44" fill="none" xmlns="http://www.w3.org/2000/svg">
<path d="M42.8909 19.7422L34.0465 27.4981L36.7411 39.0971C36.8898 39.7268 36.8515 40.3871 36.6311 40.9946C36.4107 41.6022 36.018 42.1297 35.5028 42.5106C34.9875 42.8915 34.3727 43.1086 33.7361 43.1346C33.0994 43.1606 32.4695 42.9942 31.9258 42.6565L22.0004 36.4486L12.0691 42.6565C11.5255 42.9923 10.8963 43.1571 10.2608 43.1301C9.62522 43.1032 9.01171 42.8858 8.49751 42.5052C7.98331 42.1247 7.5914 41.598 7.37113 40.9915C7.15086 40.3851 7.11208 39.7259 7.25968 39.0971L9.96411 27.4981L1.11968 19.7422C0.638736 19.3197 0.290908 18.7627 0.119636 18.1405C-0.0516363 17.5184 -0.0387623 16.8588 0.15665 16.244C0.352062 15.6293 0.721353 15.0867 1.2184 14.684C1.71545 14.2812 2.31823 14.0363 2.95146 13.9796L14.5475 13.0289L19.0208 2.0271C19.2629 1.42751 19.675 0.914635 20.2047 0.553682C20.7344 0.192728 21.3577 0 21.9955 0C22.6332 0 23.2566 0.192728 23.7862 0.553682C24.3159 0.914635 24.728 1.42751 24.9702 2.0271L29.4415 13.0289L41.0375 13.9796C41.672 14.0342 42.2766 14.2778 42.7754 14.6799C43.2743 15.0821 43.6453 15.6249 43.8419 16.2404C44.0385 16.8559 44.0521 17.5167 43.8808 18.1399C43.7095 18.7632 43.3611 19.3213 42.8791 19.7442L42.8909 19.7422Z" fill="#014162"/>
</svg>
