<svg width="24" height="24" viewBox="0 0 24 24" fill="none" xmlns="http://www.w3.org/2000/svg">
<path d="M17.6 9.33333L16.816 16.7982C16.6975 17.9298 16.6387 18.4951 16.368 18.9227C16.1306 19.299 15.7815 19.6 15.3647 19.7876C14.8915 20 14.296 20 13.1013 20H10.8987C9.70493 20 9.10853 20 8.63533 19.7867C8.21818 19.5992 7.86871 19.2983 7.63107 18.9218C7.36227 18.4951 7.30253 17.9298 7.18307 16.7982L6.4 9.33333M13.4 15.1111V10.6667M10.6 15.1111V10.6667M5 7.11111H9.30733M9.30733 7.11111L9.6676 4.736C9.77213 4.304 10.1492 4 10.5823 4H13.4177C13.8508 4 14.2269 4.304 14.3324 4.736L14.6927 7.11111M9.30733 7.11111H14.6927M14.6927 7.11111H19" stroke="#014162" stroke-width="1.5" stroke-linecap="round" stroke-linejoin="round"/>
</svg>
