<svg width="24" height="24" viewBox="0 0 24 24" fill="none" xmlns="http://www.w3.org/2000/svg">
<path fill-rule="evenodd" clip-rule="evenodd" d="M10.8375 3L9 10.8115V20.261C9 20.7175 9.34 21 9.653 21H14.847C15.1605 21 15.5 20.7175 15.5 20.261V10.8115L13.6625 3H10.8375ZM9.6525 3.67C9.6525 3.67 9.3875 3.692 9.1575 3.553C8.9815 3.447 8.8265 3.2465 8.8265 2.8695C8.8265 2 9.2395 2 10.479 2H14.021C15.2605 2 15.6735 2 15.6735 2.87C15.6735 3.2465 15.5185 3.447 15.3425 3.5535C15.1125 3.692 14.8475 3.6695 14.8475 3.6695L16.5 10.6955V20.2605C16.5 21.222 15.76 22 14.847 22H9.653C8.74 22 8 21.2215 8 20.261V10.696L9.6525 3.67Z" fill="black"/>
<path fill-rule="evenodd" clip-rule="evenodd" d="M8.70288 11.9186L8.49988 11.4616C8.29638 11.0051 8.29688 11.0046 8.29688 11.0046H8.29788L8.30037 11.0031L8.30737 11.0001L8.33138 10.9901L8.41687 10.9551C8.83919 10.787 9.27718 10.6614 9.72437 10.5801C10.4794 10.4451 11.5649 10.4051 12.3324 11.0881C12.8084 11.5121 13.5684 11.7521 14.2749 11.8781C14.6735 11.9474 15.0765 11.9882 15.4809 12.0001H15.4999V13.0001H15.4659L15.3819 12.9976C14.952 12.9817 14.5237 12.9366 14.0999 12.8626C13.3484 12.7286 12.3579 12.4496 11.6674 11.8351C11.2679 11.4801 10.6034 11.4391 9.89987 11.5646C9.49599 11.6382 9.10098 11.7542 8.72138 11.9106L8.70588 11.9171L8.70288 11.9186Z" fill="black"/>
<path d="M9.5 2.5H15L14.5 3.5H10L9.5 2.5Z" fill="black"/>
</svg>
