<svg width="24" height="24" viewBox="0 0 24 24" fill="none" xmlns="http://www.w3.org/2000/svg">
<path fill-rule="evenodd" clip-rule="evenodd" d="M9.4375 3.78125C9.57011 3.78125 9.69729 3.83393 9.79105 3.9277C9.88482 4.02146 9.9375 4.14864 9.9375 4.28125V7.58125C9.9375 7.71386 9.88482 7.84104 9.79105 7.9348C9.69729 8.02857 9.57011 8.08125 9.4375 8.08125C9.30489 8.08125 9.17772 8.02857 9.08395 7.9348C8.99018 7.84104 8.9375 7.71386 8.9375 7.58125V4.28125C8.9375 4.14864 8.99018 4.02146 9.08395 3.9277C9.17772 3.83393 9.30489 3.78125 9.4375 3.78125Z" fill="black"/>
<path fill-rule="evenodd" clip-rule="evenodd" d="M5.8902 6.95282C6.4552 6.81782 7.0317 6.92032 7.6302 7.22932C8.1177 7.48182 8.4637 7.59732 8.7332 7.65282C9.0022 7.70882 9.2162 7.70982 9.4747 7.70982V8.70982H9.4647C9.2067 8.70982 8.9047 8.70982 8.5307 8.63232C8.1522 8.55382 7.7197 8.40132 7.1707 8.11732C6.7317 7.89082 6.4007 7.85882 6.1227 7.92532C5.8307 7.99532 5.5222 8.19032 5.1667 8.55732C4.3507 9.40132 4.0972 10.2703 4.0087 10.9383C3.9587 11.7603 4.1072 13.3833 4.8427 14.9698C5.0927 15.5098 5.4477 16.2548 5.8807 16.8383C6.0967 17.1293 6.3137 17.3533 6.5222 17.4913C6.7247 17.6248 6.8927 17.6613 7.0452 17.6353C8.6067 17.3663 8.9002 17.3598 9.2047 17.3598H9.7232V18.3598H9.1902C8.9792 18.3598 8.7302 18.3598 7.2152 18.6208C6.7452 18.7018 6.3217 18.5573 5.9712 18.3258C5.6267 18.0983 5.3292 17.7728 5.0777 17.4343C4.5752 16.7578 4.1822 15.9223 3.9357 15.3903C3.1167 13.6243 2.9497 11.8218 3.0117 10.8583L3.0132 10.8423L3.0152 10.8263C3.1212 10.0043 3.4372 8.90682 4.4482 7.86232C4.8707 7.42532 5.3397 7.08432 5.8907 6.95232" fill="black"/>
<path fill-rule="evenodd" clip-rule="evenodd" d="M7.31731 5.705C8.06531 6.4205 8.47081 7.288 8.47081 7.96C8.47081 8.09261 8.52349 8.21979 8.61726 8.31355C8.71103 8.40732 8.8382 8.46 8.97081 8.46C9.10342 8.46 9.2306 8.40732 9.32437 8.31355C9.41813 8.21979 9.47081 8.09261 9.47081 7.96C9.47081 6.935 8.88681 5.8225 8.00831 4.982C7.11931 4.1325 5.86881 3.5 4.44531 3.5C4.3127 3.5 4.18553 3.55268 4.09176 3.64645C3.99799 3.74021 3.94531 3.86739 3.94531 4C3.94531 4.13261 3.99799 4.25979 4.09176 4.35355C4.18553 4.44732 4.3127 4.5 4.44531 4.5C5.56731 4.5 6.57931 4.9995 7.31681 5.705" fill="black"/>
<path fill-rule="evenodd" clip-rule="evenodd" d="M4.28941 3.50385C4.42095 3.48744 4.55362 3.52394 4.65826 3.60533C4.76289 3.68671 4.83093 3.80631 4.84741 3.93785C5.09341 5.90285 6.81991 6.93785 8.21441 7.49535C8.33753 7.54461 8.43605 7.64077 8.48828 7.76267C8.54051 7.88457 8.54217 8.02222 8.49291 8.14535C8.44364 8.26847 8.34749 8.36699 8.22559 8.41922C8.10369 8.47144 7.96603 8.47311 7.84291 8.42385C6.40841 7.85035 4.17541 6.62185 3.85541 4.06185C3.839 3.9303 3.8755 3.79763 3.95689 3.693C4.03827 3.58836 4.15788 3.52032 4.28941 3.50385ZM12.8834 6.95085C12.3074 6.81885 11.7164 6.91785 11.0984 7.22485C10.5884 7.47785 10.2249 7.59485 9.93991 7.65135C9.65491 7.70785 9.42891 7.70885 9.15991 7.70885C9.0273 7.70885 8.90012 7.76152 8.80635 7.85529C8.71259 7.94906 8.65991 8.07624 8.65991 8.20885C8.65991 8.34145 8.71259 8.46863 8.80635 8.5624C8.90012 8.65617 9.0273 8.70885 9.15991 8.70885H9.16941C9.43791 8.70885 9.74941 8.70885 10.1344 8.63235C10.5249 8.55485 10.9724 8.40335 11.5424 8.12035C12.0044 7.89135 12.3584 7.85635 12.6604 7.92535C12.9734 7.99735 13.2989 8.19635 13.6689 8.56385C14.5269 9.41535 14.7864 10.2898 14.8759 10.9558C14.8953 11.0857 14.9651 11.2027 15.07 11.2816C15.175 11.3604 15.3068 11.3949 15.4369 11.3774C15.567 11.3599 15.6851 11.292 15.7655 11.1882C15.846 11.0845 15.8824 10.9532 15.8669 10.8228C15.7559 9.99635 15.4249 8.89785 14.3734 7.85385C13.9329 7.41685 13.4484 7.07985 12.8834 6.95085ZM13.3559 17.1393C13.3086 17.0938 13.2528 17.058 13.1917 17.0341C13.1305 17.0101 13.0653 16.9984 12.9996 16.9997C12.934 17.0009 12.8692 17.0151 12.809 17.0414C12.7489 17.0677 12.6944 17.1055 12.6489 17.1528C12.2704 17.5458 11.9524 17.6778 11.6834 17.6338C10.0574 17.3648 9.75341 17.3588 9.44091 17.3588C9.3083 17.3588 9.18112 17.4115 9.08735 17.5053C8.99359 17.5991 8.94091 17.7262 8.94091 17.8588C8.94091 17.9915 8.99359 18.1186 9.08735 18.2124C9.18112 18.3062 9.3083 18.3588 9.44091 18.3588H9.45491C9.67841 18.3588 9.93841 18.3588 11.5199 18.6203C12.2809 18.7463 12.9124 18.3203 13.3694 17.8463C13.415 17.799 13.4509 17.7432 13.4749 17.682C13.4989 17.6208 13.5106 17.5555 13.5093 17.4898C13.5081 17.4241 13.4939 17.3593 13.4676 17.299C13.4412 17.2388 13.4033 17.1849 13.3559 17.1393Z" fill="black"/>
<path fill-rule="evenodd" clip-rule="evenodd" d="M16.3266 8.05137C15.8251 8.95637 15.6951 9.90587 15.8946 10.5474C15.9141 10.6101 15.9211 10.676 15.9151 10.7414C15.9091 10.8068 15.8903 10.8704 15.8597 10.9285C15.8292 10.9866 15.7875 11.0382 15.737 11.0802C15.6866 11.1222 15.6283 11.1539 15.5656 11.1734C15.5029 11.1929 15.437 11.1998 15.3716 11.1939C15.3062 11.1879 15.2426 11.1691 15.1845 11.1385C15.1263 11.108 15.0748 11.0663 15.0328 11.0158C14.9908 10.9653 14.9591 10.9071 14.9396 10.8444C14.6351 9.86487 14.8631 8.62937 15.4521 7.56637C16.0486 6.49037 17.0551 5.51587 18.4146 5.09287C18.4773 5.07337 18.5432 5.06641 18.6086 5.07239C18.674 5.07837 18.7376 5.09717 18.7957 5.12772C18.8539 5.15827 18.9054 5.19997 18.9474 5.25044C18.9894 5.30091 19.0211 5.35916 19.0406 5.42187C19.0601 5.48458 19.0671 5.55051 19.0611 5.61591C19.0551 5.6813 19.0363 5.74488 19.0057 5.80301C18.9752 5.86114 18.9335 5.91268 18.883 5.9547C18.8326 5.99671 18.7743 6.02837 18.7116 6.04787C17.6401 6.38087 16.8216 7.15887 16.3266 8.05137Z" fill="black"/>
<path fill-rule="evenodd" clip-rule="evenodd" d="M17.3612 8.69031C16.7772 9.54531 15.9872 10.0868 15.3247 10.1968C15.2591 10.2066 15.1961 10.2293 15.1394 10.2637C15.0827 10.298 15.0333 10.3434 14.9943 10.397C14.9552 10.4506 14.9272 10.5114 14.9119 10.5759C14.8966 10.6405 14.8943 10.7074 14.9051 10.7729C14.9159 10.8383 14.9397 10.9009 14.9749 10.9571C15.0102 11.0133 15.0562 11.0619 15.1105 11.1001C15.1647 11.1383 15.226 11.1653 15.2907 11.1796C15.3555 11.1939 15.4225 11.1952 15.4877 11.1833C16.4992 11.0158 17.5012 10.2578 18.1867 9.25431C18.8807 8.23831 19.3002 6.90131 19.0677 5.49681C19.057 5.432 19.0337 5.36994 18.999 5.31416C18.9643 5.25838 18.9189 5.20998 18.8655 5.17172C18.8122 5.13347 18.7517 5.1061 18.6878 5.09119C18.6238 5.07627 18.5575 5.07411 18.4927 5.08481C18.4279 5.09551 18.3658 5.11887 18.3101 5.15356C18.2543 5.18825 18.2059 5.23359 18.1676 5.28698C18.1294 5.34037 18.102 5.40078 18.0871 5.46475C18.0722 5.52872 18.07 5.595 18.0807 5.65981C18.2642 6.76681 17.9367 7.84731 17.3607 8.68981" fill="black"/>
<path fill-rule="evenodd" clip-rule="evenodd" d="M15.8906 11.5C15.5591 11.5 15.2412 11.6317 15.0067 11.8661C14.7723 12.1005 14.6406 12.4185 14.6406 12.75C14.6406 13.0815 14.7723 13.3995 15.0067 13.6339C15.2412 13.8683 15.5591 14 15.8906 14C16.2221 14 16.5401 13.8683 16.7745 13.6339C17.0089 13.3995 17.1406 13.0815 17.1406 12.75C17.1406 12.4185 17.0089 12.1005 16.7745 11.8661C16.5401 11.6317 16.2221 11.5 15.8906 11.5ZM13.6406 12.75C13.6406 12.4545 13.6988 12.1619 13.8119 11.889C13.925 11.616 14.0907 11.3679 14.2996 11.159C14.5086 10.9501 14.7566 10.7843 15.0296 10.6713C15.3026 10.5582 15.5952 10.5 15.8906 10.5C16.1861 10.5 16.4787 10.5582 16.7517 10.6713C17.0246 10.7843 17.2727 10.9501 17.4816 11.159C17.6905 11.3679 17.8563 11.616 17.9694 11.889C18.0824 12.1619 18.1406 12.4545 18.1406 12.75C18.1406 13.3467 17.9036 13.919 17.4816 14.341C17.0597 14.7629 16.4874 15 15.8906 15C15.2939 15 14.7216 14.7629 14.2996 14.341C13.8777 13.919 13.6406 13.3467 13.6406 12.75Z" fill="black"/>
<path fill-rule="evenodd" clip-rule="evenodd" d="M18.919 9.04625C19.4806 9.24777 19.9392 9.66414 20.1939 10.2038C20.4486 10.7434 20.4785 11.3621 20.277 11.9238C20.2548 11.9856 20.2207 12.0424 20.1766 12.0911C20.1324 12.1397 20.0792 12.1792 20.0198 12.2072C19.9604 12.2352 19.8961 12.2513 19.8305 12.2545C19.7649 12.2577 19.6993 12.2479 19.6375 12.2258C19.5757 12.2036 19.5188 12.1695 19.4702 12.1253C19.4216 12.0812 19.3821 12.0279 19.354 11.9685C19.326 11.9092 19.3099 11.8448 19.3067 11.7792C19.3036 11.7137 19.3133 11.6481 19.3355 11.5863C19.4475 11.2742 19.4311 10.9305 19.2897 10.6306C19.1483 10.3307 18.8935 10.0993 18.5815 9.98725C18.2695 9.8752 17.9257 9.89169 17.6258 10.0331C17.326 10.1745 17.0945 10.4292 16.9825 10.7413C16.9615 10.8046 16.9281 10.8631 16.8842 10.9133C16.8403 10.9635 16.7868 11.0044 16.7268 11.0336C16.6669 11.0629 16.6017 11.0798 16.5351 11.0834C16.4685 11.087 16.4018 11.0773 16.339 11.0548C16.2762 11.0323 16.2186 10.9974 16.1695 10.9523C16.1204 10.9071 16.0808 10.8526 16.053 10.792C16.0253 10.7313 16.01 10.6657 16.008 10.599C16.006 10.5324 16.0174 10.466 16.0415 10.4038C16.2431 9.8422 16.6595 9.38372 17.1991 9.12914C17.7388 8.87457 18.3574 8.84476 18.919 9.04625Z" fill="black"/>
<path fill-rule="evenodd" clip-rule="evenodd" d="M18.1271 11.5872C18.639 11.4404 19.1864 11.4799 19.6719 11.6986C20.1574 11.9173 20.5497 12.3011 20.7789 12.7817C21.0082 13.2624 21.0595 13.8088 20.9239 14.3237C20.7882 14.8387 20.4744 15.2889 20.0381 15.5942C19.9293 15.6669 19.7963 15.694 19.6678 15.6697C19.5392 15.6455 19.4253 15.5718 19.3504 15.4645C19.2755 15.3571 19.2457 15.2248 19.2674 15.0957C19.289 14.9667 19.3604 14.8513 19.4661 14.7742C19.6037 14.678 19.7205 14.555 19.8096 14.4127C19.8986 14.2703 19.958 14.1115 19.9843 13.9456C20.0106 13.7798 20.0032 13.6104 19.9626 13.4475C19.922 13.2845 19.849 13.1315 19.7479 12.9974C19.6468 12.8633 19.5197 12.751 19.3743 12.6671C19.2289 12.5832 19.068 12.5295 18.9013 12.5091C18.7347 12.4887 18.5656 12.5022 18.4042 12.5486C18.2429 12.595 18.0925 12.6734 17.9621 12.7792C17.9112 12.8207 17.8526 12.8517 17.7896 12.8704C17.7267 12.8892 17.6607 12.8954 17.5954 12.8887C17.53 12.8819 17.4667 12.8624 17.4089 12.8312C17.3511 12.8 17.3001 12.7577 17.2586 12.7067C17.2172 12.6558 17.1862 12.5972 17.1674 12.5342C17.1486 12.4713 17.1424 12.4053 17.1492 12.34C17.1559 12.2746 17.1754 12.2113 17.2067 12.1535C17.2379 12.0957 17.2802 12.0447 17.3311 12.0032C17.5658 11.8125 17.8365 11.671 18.1271 11.5872ZM13.8906 14.4992C13.5591 14.4992 13.2412 14.6309 13.0067 14.8653C12.7723 15.0998 12.6406 15.4177 12.6406 15.7492C12.6406 16.0808 12.7723 16.3987 13.0067 16.6331C13.2412 16.8675 13.5591 16.9992 13.8906 16.9992C14.2221 16.9992 14.5401 16.8675 14.7745 16.6331C15.0089 16.3987 15.1406 16.0808 15.1406 15.7492C15.1406 15.4177 15.0089 15.0998 14.7745 14.8653C14.5401 14.6309 14.2221 14.4992 13.8906 14.4992ZM11.6406 15.7492C11.6406 15.1525 11.8777 14.5802 12.2996 14.1582C12.7216 13.7363 13.2939 13.4992 13.8906 13.4992C14.4874 13.4992 15.0597 13.7363 15.4816 14.1582C15.9036 14.5802 16.1406 15.1525 16.1406 15.7492C16.1406 16.346 15.9036 16.9183 15.4816 17.3402C15.0597 17.7622 14.4874 17.9992 13.8906 17.9992C13.2939 17.9992 12.7216 17.7622 12.2996 17.3402C11.8777 16.9183 11.6406 16.346 11.6406 15.7492Z" fill="black"/>
<path fill-rule="evenodd" clip-rule="evenodd" d="M17.8906 14.5C17.5591 14.5 17.2412 14.6317 17.0067 14.8661C16.7723 15.1005 16.6406 15.4185 16.6406 15.75C16.6406 16.0815 16.7723 16.3995 17.0067 16.6339C17.2412 16.8683 17.5591 17 17.8906 17C18.2221 17 18.5401 16.8683 18.7745 16.6339C19.0089 16.3995 19.1406 16.0815 19.1406 15.75C19.1406 15.4185 19.0089 15.1005 18.7745 14.8661C18.5401 14.6317 18.2221 14.5 17.8906 14.5ZM15.6406 15.75C15.6406 15.1533 15.8777 14.581 16.2996 14.159C16.7216 13.7371 17.2939 13.5 17.8906 13.5C18.4874 13.5 19.0597 13.7371 19.4816 14.159C19.9036 14.581 20.1406 15.1533 20.1406 15.75C20.1406 16.3467 19.9036 16.919 19.4816 17.341C19.0597 17.7629 18.4874 18 17.8906 18C17.2939 18 16.7216 17.7629 16.2996 17.341C15.8777 16.919 15.6406 16.3467 15.6406 15.75Z" fill="black"/>
<path fill-rule="evenodd" clip-rule="evenodd" d="M15.8906 17.5C15.5591 17.5 15.2412 17.6317 15.0067 17.8661C14.7723 18.1005 14.6406 18.4185 14.6406 18.75C14.6406 19.0815 14.7723 19.3995 15.0067 19.6339C15.2412 19.8683 15.5591 20 15.8906 20C16.2221 20 16.5401 19.8683 16.7745 19.6339C17.0089 19.3995 17.1406 19.0815 17.1406 18.75C17.1406 18.4185 17.0089 18.1005 16.7745 17.8661C16.5401 17.6317 16.2221 17.5 15.8906 17.5ZM13.6406 18.75C13.6406 18.4545 13.6988 18.1619 13.8119 17.889C13.925 17.616 14.0907 17.3679 14.2996 17.159C14.5086 16.9501 14.7566 16.7843 15.0296 16.6713C15.3026 16.5582 15.5952 16.5 15.8906 16.5C16.1861 16.5 16.4787 16.5582 16.7517 16.6713C17.0246 16.7843 17.2727 16.9501 17.4816 17.159C17.6905 17.3679 17.8563 17.616 17.9694 17.889C18.0824 18.1619 18.1406 18.4545 18.1406 18.75C18.1406 19.3467 17.9036 19.919 17.4816 20.341C17.0597 20.7629 16.4874 21 15.8906 21C15.2939 21 14.7216 20.7629 14.2996 20.341C13.8777 19.919 13.6406 19.3467 13.6406 18.75Z" fill="black"/>
<path fill-rule="evenodd" clip-rule="evenodd" d="M18.9155 16.9844C18.9376 16.9226 18.9716 16.8657 19.0156 16.817C19.0597 16.7682 19.1129 16.7287 19.1722 16.7006C19.2316 16.6724 19.2959 16.6563 19.3615 16.653C19.4271 16.6497 19.4927 16.6594 19.5545 16.6814C19.8717 16.7947 20.1594 16.9777 20.3965 17.217C20.6335 17.4563 20.8138 17.7458 20.924 18.064C21.0342 18.3823 21.0716 18.7213 21.0333 19.0559C20.9951 19.3905 20.8822 19.7123 20.703 19.9975C20.5238 20.2827 20.2829 20.524 19.998 20.7036C19.7131 20.8833 19.3914 20.9967 19.0569 21.0354C18.7223 21.0742 18.3833 21.0374 18.0648 20.9276C17.7464 20.8179 17.4567 20.6381 17.217 20.4014C17.169 20.3556 17.1307 20.3007 17.1042 20.2398C17.0777 20.179 17.0635 20.1136 17.0626 20.0472C17.0616 19.9809 17.0738 19.915 17.0986 19.8535C17.1233 19.7919 17.1601 19.7359 17.2067 19.6887C17.2533 19.6415 17.3089 19.604 17.3701 19.5785C17.4313 19.553 17.497 19.5399 17.5634 19.54C17.6297 19.5401 17.6954 19.5534 17.7565 19.5792C17.8176 19.6049 17.8731 19.6426 17.9195 19.6899C18.0526 19.8214 18.2136 19.9213 18.3905 19.9823C18.5674 20.0432 18.7557 20.0637 18.9416 20.0422C19.1274 20.0207 19.3061 19.9577 19.4644 19.858C19.6227 19.7582 19.7565 19.6242 19.8561 19.4657C19.9557 19.3073 20.0184 19.1286 20.0397 18.9427C20.061 18.7568 20.0403 18.5685 19.9791 18.3917C19.9179 18.2149 19.8178 18.0541 19.6861 17.9211C19.5545 17.7881 19.3947 17.6864 19.2185 17.6234C19.1566 17.6014 19.0996 17.5673 19.0509 17.5232C19.0021 17.4792 18.9626 17.4259 18.9344 17.3665C18.9063 17.3071 18.8901 17.2427 18.8869 17.1771C18.8836 17.1114 18.8934 17.0463 18.9155 16.9844Z" fill="black"/>
</svg>
