<svg width="24" height="24" viewBox="0 0 24 24" fill="none" xmlns="http://www.w3.org/2000/svg">
<path d="M15.7065 4C16.5365 4 17.3265 4.22 17.9965 4.66C19.1365 5.4 19.8365 6.53 19.9965 7.84C20.0537 8.47455 19.9715 9.11392 19.7555 9.71334C19.5396 10.3127 19.1952 10.8577 18.7465 11.31C18.0465 12 17.1565 12.44 16.1765 12.54C14.2665 12.74 12.5865 13.5 11.3365 14.77C11.1853 14.9172 10.9826 14.9996 10.7715 14.9996C10.5605 14.9996 10.3577 14.9172 10.2065 14.77L9.21652 13.78C9.14641 13.7108 9.09083 13.6282 9.05305 13.5372C9.01527 13.4462 8.99605 13.3485 8.99652 13.25C8.99652 13 9.10652 12.78 9.31652 12.57C10.5265 11.35 11.2665 9.73 11.4465 7.87C11.5765 6.54 12.2865 5.4 13.4465 4.65C14.1065 4.22 14.8865 4 15.7065 4ZM15.7065 2C14.5365 2 13.3665 2.32 12.3565 2.97C10.5965 4.1 9.62652 5.86 9.45652 7.68C9.32652 9 8.82652 10.23 7.90652 11.15L7.87652 11.18C6.71652 12.34 6.71652 14.11 7.80652 15.19L8.79652 16.18C9.34652 16.73 10.0565 17 10.7665 17C11.4765 17 12.1965 16.73 12.7465 16.18C13.7165 15.21 14.9965 14.68 16.3865 14.53C17.7565 14.38 19.0965 13.78 20.1565 12.73C20.8215 12.0659 21.3288 11.2608 21.6407 10.3742C21.9526 9.48759 22.0612 8.54223 21.9584 7.60801C21.8557 6.67379 21.5443 5.77462 21.0472 4.977C20.55 4.17939 19.88 3.50373 19.0865 3C18.0765 2.33 16.8965 2 15.7065 2ZM6.25652 19.86C6.52652 20.42 6.43652 21.1 5.96652 21.56C5.76296 21.7666 5.50352 21.9093 5.22003 21.9707C4.93653 22.032 4.6413 22.0092 4.37056 21.9052C4.09981 21.8011 3.86532 21.6203 3.69585 21.3849C3.52638 21.1495 3.4293 20.8698 3.41652 20.58C3.12675 20.5672 2.84701 20.4701 2.61162 20.3007C2.37622 20.1312 2.19541 19.8967 2.09136 19.626C1.98731 19.3552 1.96455 19.06 2.02586 18.7765C2.08717 18.493 2.22989 18.2336 2.43652 18.03C2.89652 17.57 3.58652 17.47 4.13652 17.74L6.61652 15.31C6.75652 15.5 6.91652 15.72 7.09652 15.9L8.08652 16.89C8.29652 17.09 8.49652 17.26 8.75652 17.41L6.25652 19.86Z" fill="black"/>
</svg>
