<svg width="24" height="24" viewBox="0 0 24 24" fill="none" xmlns="http://www.w3.org/2000/svg">
<g clip-path="url(#clip0_5271_19197)">
<path d="M18.5504 8.36501C18.5128 8.45044 18.4513 8.52308 18.3731 8.57405C18.295 8.62502 18.2037 8.65211 18.1104 8.65201H15.3454V15.348H8.65036V8.65201H5.88536C5.79234 8.65088 5.70156 8.62328 5.62365 8.57246C5.54573 8.52164 5.48389 8.44968 5.44536 8.36501C5.40889 8.28129 5.3976 8.18875 5.41287 8.09871C5.42814 8.00867 5.46932 7.92503 5.53136 7.85801C7.03336 6.14601 10.5154 2.43501 11.6444 1.16301C11.6877 1.11172 11.7418 1.07054 11.8028 1.04238C11.8638 1.01422 11.9302 0.999761 11.9974 1.00001C12.0662 0.999503 12.1343 1.01379 12.1971 1.04192C12.2599 1.07004 12.3159 1.11134 12.3614 1.16301L18.4734 7.85801C18.5339 7.92599 18.5734 8.01008 18.5871 8.10009C18.6008 8.19009 18.588 8.28213 18.5504 8.36501Z" fill="#E3E3E3"/>
<path d="M11.9961 15.348V1C11.929 0.999751 11.8626 1.01421 11.8016 1.04237C11.7406 1.07053 11.6865 1.11171 11.6431 1.163C10.5131 2.435 7.03314 6.146 5.53014 7.858C5.48371 7.90854 5.44892 7.96863 5.42819 8.03405C5.40747 8.09947 5.40132 8.16863 5.41019 8.23668C5.41905 8.30473 5.44271 8.37002 5.4795 8.42795C5.51629 8.48588 5.56532 8.53505 5.62314 8.572C5.70114 8.622 5.79114 8.651 5.88414 8.652H8.64914V15.348H11.9961Z" fill="white"/>
<path d="M15.3451 15.348V8.65201H18.1101C18.2034 8.65211 18.2947 8.62502 18.3729 8.57405C18.451 8.52308 18.5126 8.45044 18.5501 8.36501C18.5878 8.28213 18.6005 8.19009 18.5869 8.10009C18.5732 8.01008 18.5337 7.92599 18.4731 7.85801L12.3611 1.16301C12.3157 1.11134 12.2597 1.07004 12.1969 1.04192C12.1341 1.01379 12.0659 0.999503 11.9971 1.00001C11.93 0.999761 11.8635 1.01422 11.8026 1.04238C11.7416 1.07054 11.6875 1.11172 11.6441 1.16301C10.5151 2.43501 7.03313 6.14601 5.53113 7.85801C5.46908 7.92503 5.42791 8.00867 5.41264 8.09871C5.39736 8.18875 5.40865 8.28129 5.44513 8.36501C5.48366 8.44968 5.5455 8.52164 5.62341 8.57246C5.70133 8.62328 5.79211 8.65088 5.88513 8.65201H8.65013V15.348M15.3451 15.348H8.65013M15.3451 15.348V17.261C15.3451 17.7684 15.5467 18.255 15.9054 18.6137C16.2642 18.9725 16.7508 19.174 17.2581 19.174C17.7655 19.174 18.2521 18.9725 18.6108 18.6137C18.9696 18.255 19.1711 17.7684 19.1711 17.261V14.87C19.1711 14.4894 19.3223 14.1244 19.5914 13.8553C19.8605 13.5862 20.2255 13.435 20.6061 13.435C20.9867 13.435 21.3517 13.5862 21.6208 13.8553C21.8899 14.1244 22.0411 14.4894 22.0411 14.87V16.782M8.65013 15.348L8.64913 17.261C8.64913 17.7684 8.44758 18.255 8.08882 18.6137C7.73006 18.9725 7.24348 19.174 6.73612 19.174C6.22877 19.174 5.74219 18.9725 5.38343 18.6137C5.02467 18.255 4.82313 17.7684 4.82313 17.261V14.87C4.82313 14.4894 4.67194 14.1244 4.40282 13.8553C4.13371 13.5862 3.76871 13.435 3.38813 13.435C3.00754 13.435 2.64254 13.5862 2.37343 13.8553C2.10431 14.1244 1.95313 14.4894 1.95312 14.87V16.782" stroke="#191919" stroke-linecap="round" stroke-linejoin="round"/>
<path d="M10.5622 15.3438V19.6478C10.5623 20.0875 10.4758 20.5229 10.3076 20.9292C10.1394 21.3354 9.89279 21.7046 9.58187 22.0155C9.27096 22.3264 8.90182 22.573 8.49557 22.7412C8.08931 22.9094 7.65389 22.9959 7.21419 22.9958C6.788 23.0215 6.36101 22.9605 5.95906 22.8165C5.55712 22.6725 5.18856 22.4485 4.87568 22.1579C4.5628 21.8674 4.31211 21.5164 4.13877 21.1262C3.96543 20.736 3.87304 20.3147 3.86719 19.8878M13.4322 15.3438V19.6478C13.4321 20.0874 13.5185 20.5227 13.6867 20.9289C13.8548 21.3351 14.1013 21.7042 14.4121 22.0151C14.723 22.326 15.092 22.5726 15.4981 22.7409C15.9043 22.9092 16.3396 22.9958 16.7792 22.9958C17.2055 23.0218 17.6326 22.961 18.0348 22.8171C18.4369 22.6732 18.8056 22.4492 19.1187 22.1586C19.4317 21.8681 19.6824 21.517 19.8558 21.1266C20.0292 20.7363 20.1215 20.3148 20.1272 19.8878M15.3452 8.64778L13.4322 5.30178M10.5622 5.30078L8.64919 8.64778" stroke="#191919" stroke-linecap="round" stroke-linejoin="round"/>
</g>
<defs>
<clipPath id="clip0_5271_19197">
<rect width="24" height="24" fill="white"/>
</clipPath>
</defs>
</svg>
