<svg width="24" height="24" viewBox="0 0 24 24" fill="none" xmlns="http://www.w3.org/2000/svg">
<path d="M7.05904 6.19251C7.1179 6.16338 7.18193 6.14612 7.24746 6.14174C7.31299 6.13736 7.37874 6.14593 7.44096 6.16696C7.50318 6.18799 7.56065 6.22108 7.61008 6.26433C7.65951 6.30757 7.69993 6.36014 7.72904 6.41901L8.12454 7.22101L8.93104 6.35601C9.02143 6.25904 9.14663 6.20193 9.27911 6.19724C9.4116 6.19255 9.54052 6.24067 9.63754 6.33101C9.83904 6.52001 9.85004 6.83651 9.66204 7.03851L8.59804 8.18001L8.99954 8.99301L9.66504 8.38651C9.71362 8.3423 9.77044 8.3081 9.83224 8.28586C9.89404 8.26362 9.95962 8.25377 10.0252 8.25689C10.0908 8.26 10.1552 8.276 10.2146 8.30399C10.274 8.33198 10.3274 8.37141 10.3715 8.42001C10.4159 8.46861 10.4502 8.5255 10.4726 8.58739C10.4949 8.64929 10.5048 8.71499 10.5017 8.78071C10.4986 8.84644 10.4825 8.91091 10.4544 8.97042C10.4263 9.02993 10.3868 9.08332 10.338 9.12751L9.46054 9.92651L9.98854 10.996C10.0474 11.1149 10.0567 11.2523 10.0142 11.378C9.9718 11.5037 9.88117 11.6074 9.76229 11.6663C9.64341 11.7251 9.506 11.7344 9.38031 11.6919C9.25461 11.6495 9.15092 11.5589 9.09204 11.44L8.54454 10.3305L7.56254 10.5295C7.43239 10.5558 7.2971 10.5294 7.18646 10.456C7.07581 10.3825 6.99886 10.2682 6.97254 10.138C6.94622 10.0079 6.97268 9.87258 7.0461 9.76193C7.11952 9.65128 7.23388 9.57433 7.36404 9.54801L8.08604 9.40201L7.68854 8.59701L6.16854 8.82601C6.03726 8.8457 5.90353 8.81244 5.79677 8.73353C5.69002 8.65463 5.61898 8.53654 5.59929 8.40526C5.5796 8.27398 5.61286 8.14025 5.69177 8.0335C5.77068 7.92674 5.88876 7.8557 6.02004 7.83601L7.22304 7.65451L6.83254 6.86301C6.80333 6.80412 6.78601 6.74005 6.78159 6.67447C6.77716 6.60888 6.78572 6.54307 6.80675 6.48079C6.82779 6.41852 6.8609 6.361 6.90419 6.31153C6.94748 6.26207 7.0001 6.22162 7.05904 6.19251ZM18.359 10.624C18.4244 10.6172 18.4904 10.6234 18.5534 10.6421C18.6163 10.6609 18.675 10.6918 18.726 10.7333C18.7769 10.7747 18.8193 10.8257 18.8505 10.8835C18.8817 10.9413 18.9013 11.0047 18.908 11.07C19.008 12.0235 18.588 12.925 17.7945 13.462C17.6845 13.5302 17.5522 13.5532 17.4256 13.526C17.2989 13.4989 17.1877 13.4237 17.1153 13.3164C17.0429 13.209 17.0148 13.0778 17.037 12.9502C17.0593 12.8226 17.1301 12.7085 17.2345 12.632C17.4711 12.4752 17.6597 12.256 17.7795 11.9987C17.8993 11.7414 17.9457 11.456 17.9135 11.174C17.9066 11.1086 17.9126 11.0425 17.9313 10.9795C17.9499 10.9164 17.9808 10.8577 18.0222 10.8066C18.0636 10.7555 18.1147 10.7131 18.1724 10.6818C18.2302 10.6504 18.2937 10.6308 18.359 10.624Z" fill="black"/>
<path fill-rule="evenodd" clip-rule="evenodd" d="M5.05508 20.9993C6.53709 20.9243 7.46258 20.5123 8.03758 19.9033C8.23858 20.1903 8.58758 20.3583 8.96608 20.2993C10.9531 19.9893 15.3811 19.1733 20.3576 17.4523C20.5446 17.3931 20.7079 17.2759 20.8238 17.1177C20.9397 16.9595 21.0021 16.7684 21.0021 16.5723C21.0021 16.3762 20.9397 16.1851 20.8238 16.0269C20.7079 15.8687 20.5446 15.7515 20.3576 15.6923C19.7933 15.4976 19.2371 15.3141 18.6891 15.1418C19.6816 14.6183 20.4431 13.7398 20.7411 12.6248C21.4136 10.1123 19.6486 7.92629 17.3581 8.62179C17.1966 7.46879 17.5706 6.40679 18.5521 5.83929L18.0521 4.97229C16.8381 5.67379 16.3281 6.87429 16.3236 8.10379C15.4631 7.44529 14.4201 7.42029 13.5336 7.88379C13.5298 7.73533 13.5087 7.58782 13.4706 7.44429C13.3181 6.87379 12.9106 6.46629 12.3506 6.23179C12.2356 5.70379 11.9706 5.06279 11.4701 4.58479C10.8901 4.03179 10.0571 3.75679 8.97158 4.02379C8.70471 3.65892 8.34633 3.3709 7.93258 3.18879C7.26508 2.90129 6.42658 2.90729 5.48058 3.45179C4.49208 3.91429 4.01558 4.59479 3.88408 5.30829C3.79508 5.79329 3.87258 6.25329 4.00008 6.61629C3.16108 7.35179 2.90858 8.19179 3.02908 8.98329C3.13358 9.66779 3.50658 10.2528 3.87258 10.6498C3.74358 11.2433 3.84408 11.8103 4.22358 12.2628C4.32158 12.3791 4.43325 12.483 4.55858 12.5743C4.55634 12.5945 4.55534 12.6149 4.55558 12.6353C4.56708 13.5643 4.62008 14.2988 4.81058 14.8698C4.19658 15.1043 3.61758 15.5808 3.08958 16.2998C3.03139 16.3788 3 16.4744 3 16.5725C3 16.6707 3.03139 16.7663 3.08958 16.8453C3.61308 17.5583 4.18708 18.0333 4.79558 18.2693C4.63358 18.8233 4.57058 19.5523 4.55608 20.5083C4.55453 20.5739 4.56643 20.6391 4.59107 20.6999C4.6157 20.7607 4.65253 20.8158 4.69929 20.8618C4.74605 20.9078 4.80175 20.9438 4.86295 20.9674C4.92414 20.9911 4.98953 21.0019 5.05508 20.9993ZM8.96058 16.5723C8.96058 17.0873 8.94058 17.6023 8.85858 18.0898V19.3028C9.34358 19.2263 9.97208 19.1203 10.7156 18.9783V17.1273H11.7156V18.7798C13.4179 18.428 15.1062 18.0121 16.7771 17.5328V16.5728H17.7771V17.2378C18.4486 17.0328 19.1371 16.8118 19.8371 16.5728C18.8779 16.2447 17.9109 15.9396 16.9371 15.6578L16.8821 15.6628L15.2356 15.1888C14.9763 15.1211 14.7213 15.0561 14.4706 14.9938V17.1273H13.4706V14.7518C11.9448 14.3925 10.4065 14.089 8.85858 13.8418V15.0548C8.94008 15.5423 8.96058 16.0573 8.96058 16.5723ZM7.85858 18.0023V15.1423C7.78858 14.7623 7.67608 14.4408 7.50408 14.1758C7.24158 13.7713 6.73608 13.3508 5.57008 13.1958C5.59558 13.8073 5.65308 14.2358 5.75858 14.5523L6.06258 15.4633L5.16658 15.8053C4.85508 15.9243 4.51008 16.1613 4.15108 16.5723C4.50608 16.9793 4.84858 17.2158 5.15708 17.3358L6.01358 17.6688L5.75508 18.5513C5.66008 18.8758 5.60108 19.3203 5.57258 19.9483C6.73708 19.7933 7.24158 19.3733 7.50408 18.9693C7.67608 18.7043 7.78859 18.3828 7.85909 18.0028M8.33258 12.9678C7.76008 12.5238 7.07708 12.1778 6.24208 12.1053C5.56508 12.0463 5.17558 11.8403 4.98958 11.6188C4.82458 11.4223 4.74708 11.1253 4.90608 10.6653L5.01508 10.3503L4.76708 10.1283C4.44958 9.84429 4.09808 9.35679 4.01808 8.83279C3.94708 8.36479 4.07659 7.77479 4.90559 7.17429L5.26308 6.91579L5.05108 6.52829C4.91608 6.28179 4.79608 5.88329 4.86808 5.49029C4.93408 5.13229 5.17358 4.69629 5.92108 4.35129L5.94308 4.34129L5.96358 4.32929C6.67558 3.91429 7.18858 3.95829 7.53858 4.10929C7.91758 4.27179 8.18208 4.59429 8.30058 4.83429L8.49608 5.22929L8.91208 5.08579C9.87958 4.75079 10.4376 4.98279 10.7806 5.31029C11.1641 5.67629 11.3616 6.24429 11.4126 6.66679L11.4521 6.99679L11.7721 7.08829C12.2401 7.22179 12.4391 7.45579 12.5056 7.70379C12.5806 7.98329 12.5256 8.42029 12.1856 9.00779C11.9298 9.45288 11.7694 9.94634 11.7146 10.4568C11.5561 11.2433 11.6496 12.0358 11.9461 12.7578C11.9901 12.9353 12.0361 13.1068 12.0796 13.2698L12.0971 13.3338C12.1058 13.3651 12.1133 13.3961 12.1196 13.4268C10.7936 13.1488 9.70958 12.9618 8.96708 12.8458C8.74766 12.811 8.52347 12.8541 8.33258 12.9678ZM17.0276 14.6428C16.029 14.3566 15.024 14.0929 14.0136 13.8518C13.5269 13.4833 13.1428 12.9961 12.8981 12.4368C12.7481 11.8138 12.6446 11.2063 12.7006 10.6243C12.7106 10.5753 12.7223 10.5263 12.7356 10.4773C13.0121 9.44429 13.6821 8.83079 14.3206 8.63879C14.9146 8.46029 15.6031 8.60229 16.1606 9.36079L16.6341 10.0058L17.3671 9.68479C18.2286 9.30679 18.8951 9.52829 19.3206 9.98029C19.7781 10.4668 20.0516 11.3328 19.7756 12.3663C19.4571 13.5553 18.3751 14.4513 17.0276 14.6428Z" fill="black"/>
</svg>
